# xmcd CD database file
#
# Track frame offsets:
#	150
#	18683
#	28663
#	52608
#	74123
#	105835
#	128635
#	143780
#	167523
#	191133
#	214388
#	240413
#
# Disc length: 3465 seconds
#
# Revision: 21
# Processed by: cddbd v1.5.2PL0 Copyright (c) Steve Scherf et al.
# Submitted via: CDex 1.79
#
DISCID=a40d870c
DTITLE=Pantera - Cowboys From Hell
DYEAR=1990
DGENRE=Metal
TTITLE0=Cowboys From Hell
TTITLE1=Primal Concrete Sledge
TTITLE2=Psycho Holiday
TTITLE3=Heresy
TTITLE4=Cemetery Gates
TTITLE5=Domination
TTITLE6=Shattered
TTITLE7=Clash With Reality
TTITLE8=Medicine Man
TTITLE9=Message In Blood
TTITLE10=The Sleep
TTITLE11=The Art Of Shredding
EXTD=YEAR: 1990
EXTT0=
EXTT1=
EXTT2=
EXTT3=
EXTT4=
EXTT5=
EXTT6=
EXTT7=
EXTT8=
EXTT9=
EXTT10=
EXTT11=
PLAYORDER=
